<?xml version="1.0" standalone="no"?>
<!DOCTYPE svg PUBLIC "-//W3C//DTD SVG 20010904//EN"
 "http://www.w3.org/TR/2001/REC-SVG-20010904/DTD/svg10.dtd">
<svg version="1.0" xmlns="http://www.w3.org/2000/svg"
 width="24.000000pt" height="24.000000pt" viewBox="0 0 24.000000 24.000000"
 preserveAspectRatio="xMidYMid meet">

<g transform="translate(0.000000,24.000000) scale(0.100000,-0.100000)"
fill="#000000" stroke="none">
<path d="M130 235 c0 -2 14 -12 31 -20 17 -9 40 -32 51 -51 25 -43 36 -38 13
6 -18 35 -95 88 -95 65z"/>
<path d="M20 205 c-21 -23 -22 -28 -11 -64 14 -47 96 -126 142 -136 58 -13 93
49 45 80 -20 14 -28 14 -45 3 -18 -11 -24 -9 -48 15 -24 24 -26 30 -15 47 14
24 3 53 -27 69 -14 8 -23 5 -41 -14z m51 -11 c10 -13 10 -20 0 -36 -14 -23 3
-57 43 -83 20 -14 28 -14 45 -3 18 11 23 10 38 -5 16 -16 16 -18 -4 -38 -20
-20 -22 -20 -55 -5 -46 22 -106 85 -117 122 -15 52 19 85 50 48z"/>
<path d="M130 196 c0 -7 62 -67 66 -63 6 6 -26 47 -47 57 -10 6 -19 9 -19 6z"/>
</g>
</svg>
