<?xml version="1.0" standalone="no"?>
<!DOCTYPE svg PUBLIC "-//W3C//DTD SVG 20010904//EN"
 "http://www.w3.org/TR/2001/REC-SVG-20010904/DTD/svg10.dtd">
<svg version="1.0" xmlns="http://www.w3.org/2000/svg"
 width="34.000000pt" height="24.000000pt" viewBox="0 0 34.000000 24.000000"
 preserveAspectRatio="xMidYMid meet">

<g transform="translate(0.000000,24.000000) scale(0.100000,-0.100000)"
fill="#000000" stroke="none">
<path d="M12 228 c-16 -16 -16 -200 0 -216 17 -17 299 -17 316 0 16 16 16 200
0 216 -17 17 -299 17 -316 0z m225 -75 l-67 -68 -67 68 -68 67 135 0 135 0
-68 -67z m-157 2 l44 -45 -44 -45 c-24 -25 -48 -45 -52 -45 -4 0 -8 40 -8 90
0 50 4 90 8 90 4 0 28 -20 52 -45z m240 -45 c0 -50 -4 -90 -8 -90 -4 0 -28 20
-52 45 l-44 45 44 45 c24 25 48 45 52 45 4 0 8 -40 8 -90z m-131 -28 c19 11
25 9 58 -25 l38 -37 -115 0 -114 0 39 40 c36 36 40 38 56 24 14 -13 20 -13 38
-2z"/>
</g>
</svg>
