<svg xmlns="http://www.w3.org/2000/svg" width="1920" height="275"><defs><linearGradient id="b" x1=".5" x2=".5" y2=".936" gradientUnits="objectBoundingBox"><stop offset="0" stop-color="#d72344"/><stop offset=".729" stop-color="#d72344"/><stop offset="1" stop-color="#8b2346"/></linearGradient><linearGradient id="c" x1=".5" y1="1" x2=".5" y2=".064" gradientUnits="objectBoundingBox"><stop offset="0" stop-color="#1d486f"/><stop offset=".808" stop-color="#1d486f"/><stop offset="1" stop-color="#32355b"/></linearGradient><clipPath id="a"><rect data-name="Rectangle 568" width="1920" height="275" rx="5" transform="translate(1949 1828)" fill="#1d1f48"/></clipPath></defs><g data-name="Group 1999" transform="translate(0 -2640)"><rect data-name="Rectangle 567" width="1920" height="275" rx="5" transform="translate(0 2640)" fill="#1d1f48"/><g data-name="Mask Group 83" transform="translate(-1949 812)" clip-path="url(#a)"><g data-name="Group 1900"><path data-name="Path 2783" d="M22.449 0s41.91 133.573 458.716 294.688c81.387 33.916 391.017 142.153 384.377 297.4a117.014 117.014 0 01-1.7 15.448C823.237 837.088-1 951.83.051 198.111-.653 128.194 5.918 59.016 22.449 0z" transform="translate(1687.352 1531.306)" fill="url(#b)"/><path data-name="Path 2784" d="M754.558 698.163s-37.5-119.532-410.494-263.71C271.233 404.1-5.848 307.243.094 168.319a104.688 104.688 0 011.52-13.819C37.952-50.929 775.538-153.608 774.6 520.877c.632 62.568-5.248 124.474-20.042 177.286z" transform="translate(3208 1633.711)" fill="url(#c)"/></g></g></g></svg>